<?xml version="1.0" encoding="UTF-8"?>
<svg id="Layer_1" data-name="Layer 1" xmlns="http://www.w3.org/2000/svg" xmlns:xlink="http://www.w3.org/1999/xlink" viewBox="0 0 77.73 77.02">
  <defs>
    <style>
      .cls-1 {
        fill: url(#linear-gradient-2);
      }

      .cls-2 {
        fill: url(#linear-gradient-4);
      }

      .cls-3 {
        fill: url(#linear-gradient-3);
      }

      .cls-4 {
        fill: url(#linear-gradient-5);
      }

      .cls-5 {
        fill: url(#linear-gradient-6);
      }

      .cls-6 {
        fill: url(#linear-gradient);
      }
    </style>
    <linearGradient id="linear-gradient" x1="50.35" y1="41.43" x2="77.73" y2="41.43" gradientUnits="userSpaceOnUse">
      <stop offset="0" stop-color="#0083a2"/>
      <stop offset="1" stop-color="#1fcad1"/>
    </linearGradient>
    <linearGradient id="linear-gradient-2" x1="16.78" y1="7.51" x2="31.8" y2="7.51" gradientUnits="userSpaceOnUse">
      <stop offset="0" stop-color="#5aa400"/>
      <stop offset="1" stop-color="#acd154"/>
    </linearGradient>
    <linearGradient id="linear-gradient-3" x1="31.04" y1="52.34" x2="49.81" y2="52.34" xlink:href="#linear-gradient"/>
    <linearGradient id="linear-gradient-4" x1="3.81" y1="29.39" x2="47.67" y2="29.39" xlink:href="#linear-gradient-2"/>
    <linearGradient id="linear-gradient-5" x1="0" y1="52.03" x2="29.5" y2="52.03" xlink:href="#linear-gradient"/>
    <linearGradient id="linear-gradient-6" x1="37.44" y1="59.59" x2="71.07" y2="59.59" xlink:href="#linear-gradient-2"/>
  </defs>
  <g>
    <path class="cls-6" d="M50.35,51.09c12.11-10.91,27.37-15.8,27.37-15.8,0,0-9.14-4.02-24.38-3.47-.12,7.17-1.3,13.63-3,19.28Z"/>
    <circle class="cls-1" cx="24.29" cy="7.51" r="7.51"/>
    <g>
      <path class="cls-3" d="M49.29,29.22c-2.26,7.22-7.25,17.39-18.25,26.13,2.63,11.69,1.53,21.66,1.53,21.66,0,0,18.44-18.89,17.18-49.35-.14.51-.29,1.03-.46,1.55Z"/>
      <path class="cls-2" d="M46.04,7.14l-.03-.08s-4.82,7.51-15.51,11.45c-13.5,4.97-26.69,3.5-26.69,3.5,15.67,5.7,22.97,18.12,26.3,29.72,9.49-7.97,14.01-17.07,16.14-24.29,1.96-6.63,1.88-13.71-.22-20.3Z"/>
    </g>
    <path class="cls-4" d="M8.65,43.4c8.82,16.91,20.85,33,20.85,33C29.76,42.41,1.62,27.67,1.62,27.67c-1.05,3.52-1.62,7.25-1.62,11.11,0,2.7.28,5.34.8,7.88,2.45,11.82,10.29,21.67,20.83,26.87-8.91-14.79-12.98-30.13-12.98-30.13Z"/>
  </g>
  <path class="cls-5" d="M37.44,76.72s14.63-11.42,25.8-24.68c0,0-7.96,14.05-18.02,22.87,13.92-4.8,24.25-17.32,25.87-32.45-18.07,9.13-31.92,31.41-33.64,34.26Z"/>
</svg>